<svg xmlns="http://www.w3.org/2000/svg" width="49.99835" height="53.31701" viewBox="0 0 49.99835 53.31701"
     creator="Katerina Limpitsouni">
    <g>
        <path d="M26.52814,7.48564C25.22112,2.20148,19.27929-1.40334,14.03628,.52785c-2.45621,.90471-4.53256,2.81072-5.6434,5.18269-.54893,1.17211-.85573,2.42415-.89914,3.71807-.04949,1.47508,.36604,3.3436-.86882,4.4436-.60126,.5356,.05061,1.3873,.72971,1.25354,1.41494-.27871,2.82987-.55741,4.24481-.83612l-.94938-.72321c.1251,6.2847,1.3849,12.76553,5.57316,17.6706,3.73743,4.37707,9.80244,6.73151,15.40138,4.78502l-.94938-.72321c.6683,5.53204,3.06076,11.01159,7.11972,14.90887,1.78798,1.71676,4.07452,3.10534,6.62207,3.10928,2.20669,.00341,4.32512-.99624,5.48189-2.90881,.16194-.26774,.1284-.6949-.11727-.90887-6.92257-6.02923-7.01598-15.89975-9.44302-24.08718-2.29122-7.72925-7.29144-14.36194-14.14151-18.62776-.82176-.51175-1.57568,.78543-.75708,1.29521,7.29541,4.54315,11.99265,11.66455,14.04758,19.93183,1.9548,7.86447,2.71407,16.87055,9.23338,22.54856l-.11727-.90887c-1.05008,1.73617-3.1963,2.42642-5.14431,2.09167-2.32084-.39881-4.22122-2.05214-5.71837-3.77204-3.07749-3.53537-5.0048-8.02816-5.56579-12.67189-.05386-.44588-.44051-.90012-.94938-.72321-5.26827,1.83153-10.79057-.5167-14.18876-4.69475-3.71805-4.57131-4.77282-10.5775-4.88702-16.31445-.01024-.51459-.46903-.81783-.94938-.72321-1.41494,.27871-2.82987,.55741-4.24481,.83612l.72971,1.25354c1.76119-1.56884,1.14075-3.94633,1.33898-6.02421,.24465-2.56443,1.86669-4.91887,4.03929-6.25431,4.63966-2.85187,10.74579,.08707,12.01788,5.23003,.23166,.93658,1.67858,.53986,1.44642-.39876h0Z"
              fill="#01010C" origin="undraw"/>
        <path d="M19.35701,33.90166c-.22735,2.36434-.4547,4.72868-.68205,7.09302-.03883,.40377,.3725,.75,.75,.75,.43791,0,.71106-.34508,.75-.75,.22735-2.36434,.4547-4.72868,.68205-7.09302,.03883-.40377-.3725-.75-.75-.75-.43791,0-.71106,.34508-.75,.75h0Z"
              fill="#01010C"/>
        <path d="M21.75308,35.01492c-.18448,1.91852-.36896,3.83704-.55344,5.75556-.03883,.40377,.3725,.75,.75,.75,.43791,0,.71106-.34508,.75-.75,.18448-1.91852,.36896-3.83704,.55344-5.75556,.03883-.40377-.3725-.75-.75-.75-.43791,0-.71106,.34508-.75,.75h0Z"
              fill="#01010C"/>
    </g>
    <path d="M.72421,41.50106l24.9408,.48724c.96562,.01886,.96559-1.48114,0-1.5l-24.9408-.48724c-.96562-.01886-.96559,1.48114,0,1.5H.72421Z"
          fill="#01010C"/>
    <path d="M14.96859,8.60736c.96518,0,.96678-1.5,0-1.5-.96518,0-.96678,1.5,0,1.5h0Z" fill="#01010C"/>
</svg>