<svg xmlns="http://www.w3.org/2000/svg" width="56.8672" height="20.16927" viewBox="0 0 56.8672 20.16927"
     creator="Katerina Limpitsouni">
    <path d="M.01298,9.78231c.79408,4.57129,5.28603,7.35456,9.75206,6.82004,4.65546-.55719,8.50128-4.29529,9.82663-8.71347,.60437-2.0147,.49382-4.34473-1.11329-5.87167-1.38957-1.32026-3.50067-1.51583-4.95807-.189-3.75012,3.41416,.2828,9.22085,2.55808,12.23517,2.9538,3.91324,7.53211,6.50201,12.4115,4.55055,4.33972-1.73563,8.83782-5.51959,10.23448-10.10088,.6373-2.09047,.69753-4.65835-.53343-6.55479-1.13261-1.74492-3.40481-2.56724-5.26028-1.44389-4.06055,2.45836-1.94938,9.00222-.11399,12.21065,2.63451,4.60536,7.65802,7.69377,13.03219,7.4284,4.8997-.24194,9.26562-3.39291,10.96833-7.99551,.3354-.90662-1.11381-1.29783-1.44642-.39876-2.62148,7.08614-11.49215,8.70472-17.33484,4.5914-2.97423-2.09389-4.94719-5.46036-5.63812-9.00243-.35488-1.8193-.54759-4.40956,1.28993-5.53853,2.24661-1.38032,3.80906,1.46422,3.95453,3.32651,.31817,4.07322-2.6342,7.47242-5.69823,9.73708-3.22309,2.38223-6.94554,4.02805-10.75102,1.88934-3.22632-1.81321-5.59226-5.50097-7.06041-8.81779-.72412-1.63591-1.09119-4.01343,.63788-5.18691,2.01678-1.36874,3.70714,1.22289,3.67222,3.01289-.07881,4.03876-3.77588,8.0675-7.54204,9.09202-4.14108,1.12651-8.67405-1.06256-9.44126-5.47916-.1649-.94928-1.61069-.54688-1.44642,.39876H.01298Z"
          fill="#01010C" origin="undraw"/>
</svg>