<svg width="434" height="401" viewBox="0 0 434 401" fill="none" xmlns="http://www.w3.org/2000/svg">
<g clip-path="url(#clip0_31_189)">
<path d="M433.331 322.602H0.668721C0.491365 322.602 0.321283 322.531 0.195874 322.406C0.070464 322.28 0 322.11 0 321.933C0 321.756 0.070464 321.586 0.195874 321.46C0.321283 321.335 0.491365 321.264 0.668721 321.264H433.331C433.509 321.264 433.679 321.335 433.804 321.46C433.93 321.586 434 321.756 434 321.933C434 322.11 433.93 322.28 433.804 322.406C433.679 322.531 433.509 322.602 433.331 322.602Z" fill="#CBCBCB"/>
<path d="M274.037 353.424L268.566 367.661L211.04 353.337L219.114 332.325L274.037 353.424Z" fill="#FFB7B7"/>
<path d="M289.234 355.095L271.594 401L271.013 400.777C266.274 398.956 262.452 395.328 260.388 390.69C258.324 386.052 258.188 380.784 260.008 376.045L260.009 376.044L270.783 348.007L289.234 355.095Z" fill="#2F2E41"/>
<path d="M186.623 175.168L161.554 177.515L160.31 252.093C160.643 255.747 162.393 259.127 165.187 261.507C167.981 263.887 171.596 265.079 175.258 264.827L191.153 263.732L186.623 175.168Z" fill="#E5E5E5"/>
<path d="M275.003 171.498L257.85 171.277L256.834 259.891C260.624 260.017 264.4 259.361 267.926 257.964C271.452 256.567 274.652 254.458 277.326 251.77C280.001 249.081 282.093 245.871 283.471 242.338C284.85 238.806 285.486 235.027 285.339 231.238L275.003 171.498Z" fill="#E5E5E5"/>
<path d="M175.473 291.371C175.067 293.941 174.477 296.479 173.708 298.965C172.843 301.399 171.506 303.649 170.715 306.108C168.192 313.945 171.69 322.683 177.275 328.732C182.119 333.957 188.371 337.669 195.278 339.42C200.317 340.687 205.556 340.87 210.749 341.046C225.128 341.533 239.878 341.969 253.503 337.349C257.808 335.853 261.966 333.965 265.924 331.707C267.174 331.112 268.275 330.245 269.147 329.17C270.186 327.69 270.319 325.772 270.31 323.964C270.28 317.87 269.044 311.806 269.337 305.718C269.5 302.346 270.131 298.977 269.82 295.616C269.39 291.798 267.791 288.206 265.24 285.332C262.69 282.458 259.314 280.443 255.574 279.561C251.709 278.731 247.7 279.183 243.765 279.562C233.55 280.543 223.292 281.002 213.03 280.936C202.546 280.869 192.126 279.269 181.694 279.101C178.608 279.052 178.671 280.003 177.689 282.988C176.784 285.736 176.044 288.535 175.473 291.371Z" fill="#2F2E41"/>
<path d="M134.474 286.417C131.655 285.709 128.75 285.4 125.845 285.5C122.792 285.669 119.811 286.486 117.098 287.896C114.386 289.306 112.004 291.277 110.113 293.678C108.221 296.08 106.863 298.856 106.127 301.823C105.392 304.79 105.297 307.88 105.849 310.886C106.553 314.143 107.703 317.287 109.268 320.229C111.557 324.872 114.302 329.505 118.538 332.481C121.017 334.222 123.885 335.307 126.72 336.375L149.034 344.779C152.317 346.016 155.6 347.252 158.915 348.399C175.57 354.155 192.934 357.606 210.525 358.657C215.883 358.976 221.322 359.065 226.549 357.845C227.79 357.556 229.113 357.125 229.831 356.073C230.257 355.332 230.507 354.504 230.564 353.651L231.938 344.04C232.131 342.687 232.317 341.263 231.821 339.989C231.192 338.374 229.615 337.357 228.112 336.494C213.442 328.07 196.313 323.422 183.965 311.86C181.058 309.138 178.625 304.824 175.093 302.975C171.088 300.878 166.371 299.681 162.231 297.749C153.181 293.526 144.283 288.672 134.474 286.417Z" fill="#2F2E41"/>
<path opacity="0.1" d="M156.752 299.374C164.639 301.845 197.939 318.964 203.647 324.942C202.882 325.217 176.924 310.673 176.145 310.439C169.065 308.314 161.945 306.176 155.222 303.067C153.869 302.441 146.434 299.501 146.771 297.795C147.151 295.87 155.352 298.936 156.752 299.374Z" fill="black"/>
<path d="M204.352 150.102L183.116 166.223C183.116 166.223 160.708 166.924 161.466 181.246C162.223 195.567 171.191 263.375 171.191 263.375L173.137 286.706L210.045 297.221C229.988 302.902 251.057 303.354 271.224 298.532L266.838 275.126C266.838 275.126 284.599 168.823 273.899 164.143C263.2 159.463 256.512 160.8 256.512 160.8L243.101 149.099L204.352 150.102Z" fill="#E5E5E5"/>
<path d="M267.212 124.063C267.212 144.991 247.857 141.825 223.982 141.825C200.107 141.825 180.752 144.991 180.752 124.063C180.752 103.135 190.206 66.0383 223.982 66.0383C258.921 66.0383 267.212 103.135 267.212 124.063Z" fill="#2F2E41"/>
<path d="M246.454 131.155C257.814 119.797 257.814 101.382 246.454 90.0234C235.094 78.6652 216.675 78.6652 205.315 90.0234C193.955 101.382 193.955 119.797 205.315 131.155C216.675 142.513 235.094 142.513 246.454 131.155Z" fill="#FFB7B7"/>
<path d="M190.227 109.853H201.733L206.809 95.6425L207.823 109.853H213.323L216.284 101.563L216.876 109.853H257.737C257.737 101.687 254.493 93.8558 248.718 88.0819C242.943 82.3079 235.11 79.0641 226.943 79.0641H221.021C212.854 79.0641 205.022 82.3079 199.247 88.0819C193.472 93.8558 190.227 101.687 190.227 109.853Z" fill="#2F2E41"/>
<path d="M253.169 153.445H194.99V223.648H253.169V153.445Z" fill="#537C5C"/>
<path d="M198.196 352.756L203.668 366.992L261.194 352.669L253.119 331.657L198.196 352.756Z" fill="#FFB7B7"/>
<path d="M201.45 347.338L212.224 375.375L212.225 375.376C214.045 380.115 213.909 385.383 211.845 390.021C209.781 394.659 205.959 398.288 201.22 400.108L200.639 400.331L182.998 354.426L201.45 347.338Z" fill="#2F2E41"/>
<path d="M313.185 280.968C317.807 279.809 322.597 279.482 327.333 280.002C331.116 280.418 335.013 281.471 337.774 284.088C341.135 287.274 342.215 292.201 342.305 296.831C342.453 306.052 339.394 315.039 333.651 322.256C332.249 324.081 330.581 325.686 328.703 327.018C326.677 328.285 324.519 329.325 322.265 330.12L272.293 349.827C259.147 355.011 245.954 360.211 232.241 363.628C231.496 363.988 230.638 364.037 229.856 363.765C229.074 363.492 228.433 362.92 228.073 362.175C228.062 362.152 228.052 362.129 228.041 362.106C223.663 355.853 219.99 349.135 217.089 342.074C216.951 341.907 216.856 341.708 216.812 341.496C216.767 341.284 216.775 341.064 216.833 340.855C216.892 340.646 217 340.455 217.148 340.297C217.296 340.138 217.481 340.018 217.685 339.946L253.031 319.641C255.563 318.187 258.123 316.711 260.225 314.685C261.753 313.205 263.003 311.464 263.919 309.544C264.651 308.014 264.72 304.404 265.655 303.273C266.572 302.165 269.706 302.077 271.154 301.641C273.195 301.016 275.195 300.261 277.14 299.379C285.046 295.843 292.087 290.704 299.666 286.563C303.917 284.133 308.46 282.253 313.185 280.968Z" fill="#2F2E41"/>
<path opacity="0.1" d="M293.147 296.132C287.075 300.692 279.212 304.883 273.194 309.564C271.14 311.161 236.898 330.408 236.414 332.965C242.029 333.911 277.796 308.893 282.914 306.397C288.031 303.9 292.568 300.38 297.063 296.886C298.209 295.995 303.063 293.318 299.775 292.323C297.922 291.763 294.515 295.22 293.147 296.132Z" fill="black"/>
<path opacity="0.17" d="M174.928 198.242L175.732 192.044C175.732 192.044 205.69 194.23 201.009 201.585C196.328 208.939 184.959 209.608 184.959 209.608L174.928 198.242Z" fill="#2F2E41"/>
<path d="M197.542 171.292C199.258 171.481 200.911 172.047 202.382 172.951C203.853 173.854 205.106 175.071 206.051 176.516C206.912 177.834 207.498 179.313 207.773 180.863C208.048 182.413 208.007 184.003 207.652 185.537C207.297 187.071 206.635 188.517 205.707 189.789C204.779 191.061 203.604 192.133 202.251 192.939C201.755 193.232 201.237 193.486 200.703 193.7L182.288 250.015C181.755 251.126 181.007 252.12 180.088 252.942C179.168 253.763 178.096 254.394 176.931 254.8C175.767 255.205 174.534 255.376 173.303 255.304C172.073 255.231 170.869 254.916 169.76 254.376C168.652 253.837 167.661 253.083 166.844 252.16C166.028 251.236 165.402 250.16 165.003 248.994C164.604 247.828 164.44 246.594 164.519 245.364C164.599 244.134 164.921 242.932 165.466 241.826L185.049 186.137C184.516 184.294 184.445 182.349 184.842 180.472C185.24 178.596 186.095 176.846 187.33 175.378C188.565 173.911 190.143 172.77 191.924 172.057C193.706 171.344 195.635 171.082 197.542 171.292Z" fill="#FFB7B7"/>
<path d="M175.203 192.572C175.203 192.572 185.754 210.596 201.009 201.585L186.225 258.147H173.77L160.885 255.742L164.493 232.372L175.203 192.572Z" fill="#E5E5E5"/>
<path d="M250.541 204.891L241.801 192.893C241.801 192.893 246.002 180.448 262.291 184.999C262.291 184.999 272.657 208.197 250.541 204.891Z" fill="#E5E5E5"/>
<path opacity="0.17" d="M250.541 204.891L241.801 192.893C241.801 192.893 246.002 180.448 262.291 184.999C262.291 184.999 272.657 208.197 250.541 204.891Z" fill="#2F2E41"/>
<path d="M252.856 162.972C255.377 164.144 257.394 166.182 258.54 168.716C259.685 171.249 259.883 174.11 259.098 176.777L278.68 232.466C279.226 233.571 279.548 234.774 279.628 236.004C279.707 237.234 279.543 238.468 279.144 239.634C278.745 240.8 278.119 241.876 277.303 242.8C276.486 243.724 275.495 244.477 274.387 245.016C273.278 245.556 272.074 245.871 270.843 245.944C269.613 246.017 268.38 245.845 267.215 245.44C266.051 245.034 264.978 244.403 264.059 243.582C263.14 242.76 262.392 241.765 261.858 240.654L243.444 184.339C242.909 184.126 242.392 183.871 241.896 183.578C240.543 182.772 239.368 181.701 238.439 180.429C237.511 179.157 236.85 177.711 236.495 176.177C236.14 174.643 236.099 173.053 236.374 171.503C236.649 169.953 237.234 168.474 238.095 167.156C239.04 165.711 240.293 164.493 241.764 163.59C243.236 162.687 244.889 162.121 246.605 161.932C248.745 161.689 250.91 162.05 252.856 162.972Z" fill="#FFB7B7"/>
<path d="M241.801 192.893C241.801 192.893 256.222 201.642 262.291 184.999L282.613 238.497L276.574 249.055L275.701 249.128C272.099 249.429 268.477 248.85 265.148 247.443C261.818 246.035 258.88 243.84 256.586 241.047C251.907 235.35 248.722 228.577 247.318 221.34L241.801 192.893Z" fill="#E5E5E5"/>
<g clip-path="url(#clip1_31_189)">
<path d="M359.296 35.9629C348.893 40.0308 341.673 50.4112 342.011 61.6569C342.375 73.7608 350.745 84.0287 362.333 87.2918C374.024 90.5839 386.913 86.3643 394.365 76.7947C401.133 68.1042 402.98 55.8528 397.618 45.9902C394.6 40.4401 389.456 36.6798 383.369 35.1118C376.736 33.4027 369.745 34.0041 363.013 34.6763C362.061 34.7713 362.051 36.2723 363.013 36.1763C373.538 35.1255 386.213 34.2158 393.831 43.0941C400.712 51.1148 400.677 63.1354 395.704 72.0749C390.155 82.0488 379.157 87.8103 367.791 86.782C356.257 85.7385 346.372 77.4911 344.025 66.0512C341.575 54.1128 348.356 41.8431 359.695 37.4093C360.584 37.0616 360.197 35.6105 359.296 35.9629Z" fill="#01010C"/>
<path d="M370.41 49.7391L368.806 61.7325C368.752 62.1374 369.19 62.4787 369.556 62.4825C370.006 62.4872 370.253 62.1324 370.306 61.7325L371.91 49.7391C371.964 49.3342 371.526 48.9929 371.16 48.9891C370.71 48.9844 370.463 49.3392 370.41 49.7391Z" fill="#01010C"/>
<path d="M369.352 62.6966C373.405 67.1941 377.458 71.6917 381.511 76.1892C382.159 76.9079 383.217 75.8444 382.572 75.1286C378.519 70.631 374.466 66.1335 370.413 61.6359C369.765 60.9173 368.707 61.9808 369.352 62.6966Z" fill="#01010C"/>
</g>
</g>
<defs>
<clipPath id="clip0_31_189">
<rect width="434" height="401" fill="white"/>
</clipPath>
<clipPath id="clip1_31_189">
<rect width="58.7386" height="54.3978" fill="white" transform="translate(342 34)"/>
</clipPath>
</defs>
</svg>
