<svg xmlns="http://www.w3.org/2000/svg" width="35.38993" height="48.83126" viewBox="0 0 35.38993 48.83126"
     creator="Katerina Limpitsouni">
    <path d="M2.3105,47.79427c-.27012-15.68917-.54025-31.37834-.81037-47.06751L.2198,1.25709C11.51199,11.06167,22.80419,20.86626,34.09639,30.67085l.72971-1.25354c-3.98811-1.03263-7.97968-2.05183-11.97505-3.05602-2.84074-.71399-6.57401-2.28246-8.77718,.50353-1.04827,1.32558-1.76935,2.96288-2.5915,4.43278-1.04657,1.87114-2.09315,3.74228-3.13972,5.61343-2.01264,3.59835-4.02528,7.1967-6.03792,10.79505-.47174,.84341,.82342,1.60058,1.29521,.75708,3.62247-6.47652,7.20212-12.97922,10.86826-19.43109,.37287-.6562,.73826-1.36178,1.36197-1.81435,.76774-.55707,1.70382-.53567,2.60154-.38384,1.67586,.28345,3.33251,.80015,4.97941,1.2151,3.6752,.92599,7.34717,1.86473,11.01623,2.81475,.68744,.178,1.31772-.74299,.72971-1.25354C23.86485,19.8056,12.57265,10.00101,1.28046,.19643,.81059-.21154-.01169,.04032,.00013,.72676c.27012,15.68917,.54025,31.37834,.81037,47.06751,.0166,.96418,1.51665,.96721,1.5,0h0Z"
          fill="#01010C" origin="undraw"/>
</svg>