<svg xmlns="http://www.w3.org/2000/svg" width="1em" height="1em" viewBox="0 0 24 24">
    <path fill="currentColor"
          d="M12 8.125v7.8l3.15 1.925l-.825-3.6l2.775-2.4l-3.65-.325Zm0 10.15l-4.15 2.5q-.275.175-.575.15q-.3-.025-.525-.2q-.225-.175-.35-.437q-.125-.263-.05-.588l1.1-4.725L3.775 11.8q-.25-.225-.312-.513Q3.4 11 3.5 10.725q.1-.275.3-.45q.2-.175.55-.225l4.85-.425l1.875-4.45q.125-.3.388-.45q.262-.15.537-.15t.538.15q.262.15.387.45l1.875 4.45l4.85.425q.35.05.55.225q.2.175.3.45q.1.275.038.562q-.063.288-.313.513l-3.675 3.175l1.1 4.725q.075.325-.05.588q-.125.262-.35.437q-.225.175-.525.2q-.3.025-.575-.15Z"/>
</svg>